<svg width="15" height="15" viewBox="0 0 15 15" fill="none" xmlns="http://www.w3.org/2000/svg">
<path d="M7.50033 0C5.51195 0.00215003 3.60563 0.792778 2.19963 2.19841C0.793637 3.60404 0.0028043 5.50987 0.00065372 7.49774C-0.0780929 13.4791 6.97472 17.1379 11.8126 13.6315C11.8822 13.5853 11.9417 13.5256 11.9878 13.456C12.0338 13.3863 12.0655 13.3082 12.0808 13.2261C12.0962 13.1441 12.0949 13.0598 12.0771 12.9782C12.0594 12.8967 12.0254 12.8195 11.9773 12.7513C11.9292 12.683 11.8679 12.6251 11.797 12.581C11.7261 12.5368 11.6471 12.5073 11.5647 12.4942C11.4822 12.4811 11.398 12.4846 11.3169 12.5046C11.2358 12.5246 11.1596 12.5606 11.0927 12.6106C7.06284 15.5303 1.1881 12.4825 1.2506 7.49774C1.59371 -0.791011 13.4082 -0.789136 13.7501 7.49774V8.74736C13.7501 9.07878 13.6184 9.39662 13.384 9.63097C13.1495 9.86532 12.8316 9.99698 12.5001 9.99698C12.1686 9.99698 11.8507 9.86532 11.6163 9.63097C11.3819 9.39662 11.2502 9.07878 11.2502 8.74736V7.49774C11.0927 2.54361 3.90736 2.54423 3.75049 7.49774C3.75776 8.2575 3.99514 8.99724 4.43132 9.61944C4.86751 10.2416 5.48204 10.7171 6.19392 10.9832C6.90579 11.2493 7.6816 11.2934 8.4191 11.1099C9.15659 10.9264 9.82116 10.5238 10.3252 9.95512C10.5963 10.4335 11.0177 10.8091 11.524 11.0239C12.0302 11.2386 12.5932 11.2804 13.1257 11.1428C13.6582 11.0053 14.1304 10.696 14.4693 10.2629C14.8081 9.82985 14.9947 9.29715 15 8.74736V7.49774C14.9978 5.50987 14.207 3.60404 12.801 2.19841C11.395 0.792778 9.4887 0.00215003 7.50033 0V0ZM7.50033 9.99698C6.83731 9.99698 6.20146 9.73367 5.73264 9.26497C5.26382 8.79627 5.00044 8.16058 5.00044 7.49774C5.00044 6.83489 5.26382 6.1992 5.73264 5.7305C6.20146 5.2618 6.83731 4.99849 7.50033 4.99849C8.16334 4.99849 8.7992 5.2618 9.26802 5.7305C9.73684 6.1992 10.0002 6.83489 10.0002 7.49774C10.0002 8.16058 9.73684 8.79627 9.26802 9.26497C8.7992 9.73367 8.16334 9.99698 7.50033 9.99698Z" fill="#CBCFD1"/>
</svg>
