<svg width="48" height="48" viewBox="0 0 48 48" fill="none" xmlns="http://www.w3.org/2000/svg">
<path d="M45 16.2L40 18.95L35 23.7V40H42C43.657 40 45 38.657 45 37V16.2Z" fill="#4CAF50"/>
<path d="M3 16.2L6.614 17.91L13 23.7V40H6C4.343 40 3 38.657 3 37V16.2Z" fill="#1E88E5"/>
<path d="M35 11.2L24 19.45L13 11.2L12 17L13 23.7L24 31.95L35 23.7L36 17L35 11.2Z" fill="#E53935"/>
<path d="M3 12.298V16.2L13 23.7V11.2L9.876 8.859C9.132 8.301 8.228 8 7.298 8C4.924 8 3 9.924 3 12.298Z" fill="#C62828"/>
<path d="M45 12.298V16.2L35 23.7V11.2L38.124 8.859C38.868 8.301 39.772 8 40.702 8C43.076 8 45 9.924 45 12.298Z" fill="#FBC02D"/>
</svg>
