<svg width="20" height="10" viewBox="0 0 20 10" fill="none" xmlns="http://www.w3.org/2000/svg">
<path d="M12.6337 9.0272C12.6337 9.26633 12.5387 9.49566 12.3696 9.66474C12.2005 9.83383 11.9712 9.92882 11.732 9.92882H8.12559C7.88647 9.92882 7.65714 9.83383 7.48806 9.66474C7.31897 9.49566 7.22398 9.26633 7.22398 9.0272C7.22398 8.78808 7.31897 8.55875 7.48806 8.38967C7.65714 8.22058 7.88647 8.12559 8.12559 8.12559H11.732C11.9712 8.12559 12.2005 8.22058 12.3696 8.38967C12.5387 8.55875 12.6337 8.78808 12.6337 9.0272ZM12.3695 0.275252C12.2004 0.106226 11.9711 0.0112718 11.732 0.0112718C11.493 0.0112718 11.2637 0.106226 11.0946 0.275252L9.92882 1.44104L8.76303 0.275252C8.67986 0.189139 8.58037 0.120452 8.47037 0.0731991C8.36037 0.0259465 8.24206 0.00107434 8.12235 3.40422e-05C8.00263 -0.00100625 7.88391 0.0218059 7.7731 0.0671398C7.6623 0.112474 7.56163 0.179421 7.47698 0.264076C7.39232 0.348731 7.32537 0.449398 7.28004 0.560203C7.23471 0.671008 7.21189 0.789732 7.21293 0.909447C7.21397 1.02916 7.23885 1.14747 7.2861 1.25747C7.33335 1.36747 7.40204 1.46696 7.48815 1.55013L8.65394 2.71592L7.48815 3.8817C7.40204 3.96487 7.33335 4.06436 7.2861 4.17436C7.23885 4.28436 7.21397 4.40267 7.21293 4.52239C7.21189 4.6421 7.23471 4.76083 7.28004 4.87163C7.32537 4.98244 7.39232 5.0831 7.47698 5.16776C7.56163 5.25241 7.6623 5.31936 7.7731 5.36469C7.88391 5.41003 8.00263 5.43284 8.12235 5.4318C8.24206 5.43076 8.36037 5.40589 8.47037 5.35863C8.58037 5.31138 8.67986 5.24269 8.76303 5.15658L9.92882 3.9908L11.0946 5.15658C11.2646 5.32082 11.4924 5.4117 11.7288 5.40964C11.9652 5.40759 12.1913 5.31277 12.3585 5.1456C12.5257 4.97843 12.6205 4.7523 12.6225 4.5159C12.6246 4.2795 12.5337 4.05175 12.3695 3.8817L11.2037 2.71592L12.3695 1.55013C12.5385 1.38105 12.6335 1.15177 12.6335 0.912692C12.6335 0.673616 12.5385 0.444329 12.3695 0.275252ZM18.9449 8.12559H15.3385C15.0994 8.12559 14.87 8.22058 14.701 8.38967C14.5319 8.55875 14.4369 8.78808 14.4369 9.0272C14.4369 9.26633 14.5319 9.49566 14.701 9.66474C14.87 9.83383 15.0994 9.92882 15.3385 9.92882H18.9449C19.1841 9.92882 19.4134 9.83383 19.5825 9.66474C19.7516 9.49566 19.8466 9.26633 19.8466 9.0272C19.8466 8.78808 19.7516 8.55875 19.5825 8.38967C19.4134 8.22058 19.1841 8.12559 18.9449 8.12559ZM18.4166 2.71592L19.5824 1.55013C19.6685 1.46696 19.7372 1.36747 19.7844 1.25747C19.8317 1.14747 19.8566 1.02916 19.8576 0.909447C19.8586 0.789732 19.8358 0.671008 19.7905 0.560203C19.7452 0.449398 19.6782 0.348731 19.5936 0.264076C19.5089 0.179421 19.4082 0.112474 19.2974 0.0671398C19.1866 0.0218059 19.0679 -0.00100625 18.9482 3.40422e-05C18.8285 0.00107434 18.7102 0.0259465 18.6002 0.0731991C18.4902 0.120452 18.3907 0.189139 18.3075 0.275252L17.1417 1.44104L15.9759 0.275252C15.8928 0.189139 15.7933 0.120452 15.6833 0.0731991C15.5733 0.0259465 15.455 0.00107434 15.3352 3.40422e-05C15.2155 -0.00100625 15.0968 0.0218059 14.986 0.0671398C14.8752 0.112474 14.7745 0.179421 14.6899 0.264076C14.6052 0.348731 14.5383 0.449398 14.4929 0.560203C14.4476 0.671008 14.4248 0.789732 14.4258 0.909447C14.4269 1.02916 14.4517 1.14747 14.499 1.25747C14.5463 1.36747 14.6149 1.46696 14.7011 1.55013L15.8668 2.71592L14.7011 3.8817C14.6149 3.96487 14.5463 4.06436 14.499 4.17436C14.4517 4.28436 14.4269 4.40267 14.4258 4.52239C14.4248 4.6421 14.4476 4.76083 14.4929 4.87163C14.5383 4.98244 14.6052 5.0831 14.6899 5.16776C14.7745 5.25241 14.8752 5.31936 14.986 5.36469C15.0968 5.41003 15.2155 5.43284 15.3352 5.4318C15.455 5.43076 15.5733 5.40589 15.6833 5.35863C15.7933 5.31138 15.8928 5.24269 15.9759 5.15658L17.1417 3.9908L18.3075 5.15658C18.4775 5.32082 18.7053 5.4117 18.9417 5.40964C19.1781 5.40759 19.4042 5.31277 19.5714 5.1456C19.7386 4.97843 19.8334 4.7523 19.8354 4.5159C19.8375 4.2795 19.7466 4.05175 19.5824 3.8817L18.4166 2.71592ZM4.51914 8.12559H0.912692C0.673569 8.12559 0.444241 8.22058 0.275155 8.38967C0.10607 8.55875 0.0110792 8.78808 0.0110792 9.0272C0.0110792 9.26633 0.10607 9.49566 0.275155 9.66474C0.444241 9.83383 0.673569 9.92882 0.912692 9.92882H4.51914C4.75826 9.92882 4.98759 9.83383 5.15668 9.66474C5.32576 9.49566 5.42075 9.26633 5.42075 9.0272C5.42075 8.78808 5.32576 8.55875 5.15668 8.38967C4.98759 8.22058 4.75826 8.12559 4.51914 8.12559ZM5.15658 0.275252C4.9875 0.106226 4.75822 0.0112718 4.51914 0.0112718C4.28007 0.0112718 4.05078 0.106226 3.8817 0.275252L2.71592 1.44104L1.55013 0.275252C1.46696 0.189139 1.36747 0.120452 1.25747 0.0731991C1.14747 0.0259465 1.02916 0.00107434 0.909447 3.40422e-05C0.789732 -0.00100625 0.671008 0.0218059 0.560203 0.0671398C0.449398 0.112474 0.348731 0.179421 0.264076 0.264076C0.179421 0.348731 0.112474 0.449398 0.06714 0.560203C0.0218061 0.671008 -0.00100625 0.789732 3.40419e-05 0.909447C0.00107434 1.02916 0.0259464 1.14747 0.073199 1.25747C0.120452 1.36747 0.189138 1.46696 0.275252 1.55013L1.44104 2.71592L0.275252 3.8817C0.189138 3.96487 0.120452 4.06436 0.073199 4.17436C0.0259464 4.28436 0.00107434 4.40267 3.40419e-05 4.52239C-0.00100625 4.6421 0.0218061 4.76083 0.06714 4.87163C0.112474 4.98244 0.179421 5.0831 0.264076 5.16776C0.348731 5.25241 0.449398 5.31936 0.560203 5.36469C0.671008 5.41003 0.789732 5.43284 0.909447 5.4318C1.02916 5.43076 1.14747 5.40589 1.25747 5.35863C1.36747 5.31138 1.46696 5.24269 1.55013 5.15658L2.71592 3.9908L3.8817 5.15658C3.96487 5.24269 4.06436 5.31138 4.17436 5.35863C4.28436 5.40589 4.40267 5.43076 4.52239 5.4318C4.6421 5.43284 4.76083 5.41003 4.87163 5.36469C4.98244 5.31936 5.0831 5.25241 5.16776 5.16776C5.25241 5.0831 5.31936 4.98244 5.36469 4.87163C5.41003 4.76083 5.43284 4.6421 5.4318 4.52239C5.43076 4.40267 5.40589 4.28436 5.35863 4.17436C5.31138 4.06436 5.24269 3.96487 5.15658 3.8817L3.9908 2.71592L5.15658 1.55013C5.32561 1.38105 5.42056 1.15177 5.42056 0.912692C5.42056 0.673616 5.32561 0.444329 5.15658 0.275252Z" fill="#CBCFD1"/>
</svg>
