<svg width="375" height="812" viewBox="0 0 375 812" fill="none" xmlns="http://www.w3.org/2000/svg">
<path d="M878.733 -42.6543C877.632 30.867 813.637 80.9573 740.605 93.6517C716.604 97.6567 691.665 98.9643 666.239 97.5509C651.543 96.8348 636.681 95.3932 621.717 93.4016C618.04 92.9193 614.345 92.4097 610.65 91.8511C608.141 91.4856 605.628 91.1021 603.11 90.7006C571.59 85.7016 539.81 78.7577 508.43 71.7403C430.097 54.2229 349.516 36.0807 275.735 46.716C260.536 48.9091 243.299 55.2182 243.606 70.4697C243.877 83.7087 257.591 95.4986 270.506 103.114C318.374 131.306 373.043 136.353 423.775 135.699C474.507 135.045 524.955 129.64 576.89 140.287C628.826 150.933 684.433 181.907 708.761 229.766C729.725 271.009 722.714 317.061 698.787 348.021C674.854 378.971 636.302 396.511 595.459 405.829C554.61 415.139 510.945 416.98 468.213 421.228C442.442 423.779 412.186 432.03 411.548 457.29C411.014 478.63 434.527 499.587 457.281 505.245C480.035 510.902 501.693 505.475 522.186 500.053C585.823 483.225 649.458 466.394 713.09 449.56C732.605 444.389 752.638 439.182 774.237 441.257C795.83 443.323 819.667 454.177 832.371 473.19C844.885 491.933 843.847 514.804 834.293 530.978C824.741 547.139 807.984 557.604 790.351 565.597C724.264 595.545 464.496 580.754 410.811 589.547C376.322 595.206 336.24 597.997 303.954 574.982C263.758 546.332 257.367 489.633 278.993 455.689C300.604 421.74 341.688 405.328 381.802 392.033C421.916 378.737 464.289 366.343 492.11 337.328C519.93 308.314 528.021 256.824 496.893 219.049C469.804 186.183 423.142 175.113 385.125 179.337C355.363 182.641 328.656 193.251 301.148 202.099C293.52 204.565 285.822 206.882 277.989 208.876C257.916 213.965 236.906 216.881 215.299 217.578C192.636 218.326 169.455 216.674 146.154 212.648C127.578 209.451 109.002 204.722 90.639 198.514C87.8357 197.564 85.0217 196.566 82.1969 195.52C79.5017 194.514 76.7976 193.463 74.1018 192.358C39.0939 178.087 5.02454 155.794 -12.0461 123.413C-29.069 91.1187 -24.9902 54.7085 -7.66922 29.2019C2.57629 14.6343 16.0946 2.69726 32.1551 -5.96436C43.8588 -12.4227 56.3895 -17.6909 69.5888 -21.7024C130.449 -40.5774 200.206 -37.8499 268.858 -31.3087C337.501 -24.7628 407.067 -14.5626 473.575 -19.0643C540.089 -23.5572 604.746 -44.4994 642.549 -91.5366C680.359 -138.565 684.766 -215.361 640.536 -273.739C697.35 -259.495 754.776 -234.296 800.699 -193.801C846.621 -153.306 879.528 -96.0495 878.733 -42.6543Z" fill="#192E35"/>
<path d="M343.484 456.202C342.159 457.82 342.699 460.454 344.691 462.085C346.682 463.717 349.371 463.727 350.696 462.109C352.022 460.491 351.482 457.857 349.49 456.226C347.498 454.595 344.81 454.584 343.484 456.202Z" fill="#FF6584"/>
<path d="M295.483 191.883C297.758 195.135 299.66 198.566 301.148 202.099C293.519 204.565 285.822 206.882 277.989 208.876C257.916 213.965 236.906 216.881 215.298 217.578C211.516 207.077 211.583 196.366 215.487 187.39C219.392 178.415 226.874 171.769 236.577 168.66C246.279 165.551 257.558 166.184 268.367 170.445C279.175 174.706 288.796 182.313 295.483 191.883L295.483 191.883Z" fill="#FF6584"/>
<path d="M200.454 10.0159C199.099 11.6707 199.651 14.3647 201.688 16.0329C203.725 17.7012 206.475 17.712 207.83 16.0571C209.186 14.4022 208.633 11.7083 206.597 10.0401C204.56 8.37182 201.81 8.36098 200.454 10.0159Z" fill="#F0F0F0"/>
<path d="M134.485 66.0843C148.04 85.4396 157.172 106.733 161.126 128.209C161.644 131.041 162.071 133.867 162.407 136.687C165.759 164.645 160.083 191.169 146.153 212.648C127.578 209.451 109.002 204.722 90.6389 198.514C87.8355 197.564 85.0215 196.566 82.1968 195.521C79.5017 194.514 76.7974 193.463 74.1017 192.358C39.0937 178.088 5.02426 155.794 -12.0464 123.414C-29.0693 91.1188 -24.9903 54.7086 -7.66942 29.202C2.57614 14.6344 16.0943 2.69739 32.1548 -5.96424C53.3875 -0.390195 73.9943 9.54184 92.4466 23.0952C94.7698 24.8005 97.0455 26.5677 99.2987 28.3834C112.819 39.3285 124.72 52.0801 134.485 66.0843Z" fill="#F2735E"/>
<path d="M190.335 45.5636C203.462 64.3563 198.762 90.5904 177.107 119.454C172.778 125.233 164.894 129.03 162.407 136.687C150.339 173.834 122.244 193.491 82.1969 195.52C79.5017 194.514 76.7975 193.463 74.1017 192.358C74.4564 192.185 74.8049 192.003 75.1533 191.822C110.256 173.508 140.181 151.298 161.126 128.209C164.992 123.94 172.51 121.227 171.786 115.336C165.97 68.0311 191.25 59.9625 185.357 48.1607C176.751 30.9229 146.698 24.3842 110.255 27.2466C106.648 27.5281 102.996 27.9069 99.2987 28.3833C97.0455 26.5676 94.7699 24.8005 92.4467 23.0952C97.9064 22.2902 103.264 21.6783 108.518 21.2594C148.158 18.1446 177.215 26.78 190.335 45.5636Z" fill="#E4E4E4"/>
<path d="M73.8924 37.884C72.537 39.5389 73.0894 42.2328 75.1262 43.901C77.1631 45.5693 79.913 45.5801 81.2684 43.9253C82.6238 42.2704 82.0714 39.5764 80.0346 37.9082C77.9977 36.24 75.2478 36.2291 73.8924 37.884Z" fill="#F0F0F0"/>
<path d="M30.6495 70.2353C17.4689 86.3282 22.8409 112.525 42.6482 128.748C62.4556 144.971 89.1976 145.077 102.378 128.984C115.559 112.891 110.187 86.6937 90.3795 70.4708C70.5721 54.2479 43.8302 54.1425 30.6495 70.2353Z" fill="#F0F0F0"/>
<path opacity="0.3" d="M493.655 534.19L309.53 490.866L493.297 539.96C493.781 540.238 494.304 540.412 494.824 540.469C495.343 540.525 495.845 540.462 496.286 540.285C496.727 540.108 497.095 539.821 497.36 539.449C497.625 539.077 497.779 538.631 497.809 538.146C497.839 537.662 497.744 537.154 497.533 536.664C497.321 536.174 496.999 535.717 496.593 535.33C496.187 534.943 495.708 534.638 495.197 534.44C494.686 534.242 494.157 534.156 493.655 534.19Z" fill="#F0F0F0"/>
<path d="M131.452 185.113C130.097 186.768 130.649 189.462 132.686 191.13C134.723 192.798 137.473 192.809 138.828 191.154C140.184 189.499 139.631 186.805 137.595 185.137C135.558 183.469 132.808 183.458 131.452 185.113Z" fill="#F0F0F0"/>
</svg>
